PathFileType	4	(X/Y/Z)	SUBJ94_0_static_RCNL2025.trc
DataRate	CameraRate	NumFrames	NumMarkers	Units	OrigDataRate	OrigDataStartFrame	OrigNumFrames
100	100	9	25	mm	100	86	227
Frame#	Time	R_Shoulder			L_Shoulder			C7			J_Notch			R_Elbow			L_Elbow			R_Wrist			L_Wrist			R_Asis			L_Asis			Sacral			Thoracic			Sternum			R_Thigh_Lateral			R_Knee_Lateral			R_Shank_Lateral			R_Ankle_Lateral			R_Heel			R_Toe			L_Thigh_Lateral			L_Knee_Lateral			L_Shank_Lateral			L_Ankle_Lateral			L_Heel			L_Toe		
		X1	Y1	Z1	X2	Y2	Z2	X3	Y3	Z3	X4	Y4	Z4	X5	Y5	Z5	X6	Y6	Z6	X7	Y7	Z7	X8	Y8	Z8	X9	Y9	Z9	X10	Y10	Z10	X11	Y11	Z11	X12	Y12	Z12	X13	Y13	Z13	X14	Y14	Z14	X15	Y15	Z15	X16	Y16	Z16	X17	Y17	Z17	X18	Y18	Z18	X19	Y19	Z19	X20	Y20	Z20	X21	Y21	Z21	X22	Y22	Z22	X23	Y23	Z23	X24	Y24	Z24	X25	Y25	Z25
86	0.85000000	-292.541077	1269.410400	-55.183296	-277.298615	1283.969727	-432.606903	-338.273010	1352.190186	-241.527863	-223.888046	1263.907837	-246.930237	-359.937927	1017.861877	62.155952	-341.662933	1030.119995	-548.538818	-336.168442	804.263763	128.032402	-298.347534	803.182465	-582.577881	-215.230774	881.536743	-117.444893	-198.359894	872.033142	-343.998383	-397.067963	940.021362	-254.100876	-400.017120	1149.029175	-253.797028	-183.567245	1071.002930	-239.695862	-307.917389	537.329712	-58.561485	-326.717560	444.346405	-116.409225	-349.036255	261.265594	-75.412643	-361.022675	55.948761	-158.331512	-404.277039	52.578667	-206.315414	-226.246735	37.922592	-188.016678	-291.959778	535.596436	-428.765045	-319.558319	439.436859	-373.690247	-336.059845	259.770416	-437.203430	-358.933533	56.801445	-331.755096	-399.395721	46.646530	-283.580139	-233.146912	42.452843	-300.127106
87	0.86000000	-292.661591	1269.444458	-55.182941	-277.332245	1283.966187	-432.520508	-338.282471	1352.193237	-241.527161	-223.900116	1263.910889	-246.920425	-359.925995	1017.848816	62.152802	-341.632599	1030.114746	-548.482605	-336.163864	804.229401	128.023315	-298.152023	803.192017	-582.578918	-215.255112	881.494324	-117.411827	-198.304337	872.126709	-343.985260	-397.003510	940.038879	-254.002884	-400.097931	1148.987427	-253.715408	-183.577713	1071.000122	-239.674866	-307.910919	537.329651	-58.548431	-326.721588	444.376495	-116.402168	-348.998749	261.272858	-75.346085	-361.013489	55.962994	-158.323563	-404.308014	52.664349	-206.245117	-226.252563	37.958618	-188.012268	-291.937622	535.635620	-428.735901	-319.477020	439.439667	-373.665588	-336.039490	259.834930	-437.161224	-358.925293	56.842167	-331.760986	-399.323944	46.632324	-283.501129	-233.157410	42.455772	-300.127319
88	0.87000000	-292.688751	1269.422974	-55.168056	-277.436737	1283.967163	-432.411591	-338.271088	1352.169678	-241.537384	-223.912979	1263.875244	-246.871979	-359.923187	1017.849487	62.153782	-341.617798	1030.138428	-548.431946	-336.018509	804.198547	127.964828	-297.946304	803.293304	-582.630249	-215.144501	881.494629	-117.346512	-198.318802	872.127441	-343.955383	-397.017975	940.047791	-253.973480	-400.104004	1148.987305	-253.710403	-183.451828	1071.004150	-239.637070	-307.911011	537.328796	-58.547462	-326.721710	444.348114	-116.411858	-349.011383	261.280121	-75.322037	-360.994324	55.928822	-158.311005	-404.253479	52.644550	-206.302353	-226.263474	37.930309	-188.033295	-291.932007	535.635254	-428.767548	-319.489166	439.416748	-373.618805	-336.036591	259.844757	-437.154907	-358.921234	56.855610	-331.792572	-399.361603	46.690079	-283.561798	-233.161163	42.487553	-300.152130
89	0.88000000	-292.745819	1269.429077	-55.124275	-277.573853	1283.960083	-432.428589	-338.303192	1352.115112	-241.625565	-224.004654	1263.862915	-246.765900	-359.922119	1017.808655	62.147980	-341.613892	1030.119751	-548.422424	-336.022980	804.159760	127.873337	-297.698456	803.286041	-582.581543	-215.124954	881.472534	-117.367729	-198.329056	872.121399	-343.950806	-396.986053	940.052124	-253.902863	-400.103027	1148.952148	-253.713181	-183.513733	1071.001587	-239.541000	-307.827484	537.290955	-58.498028	-326.621063	444.321198	-116.381859	-349.019470	261.255280	-75.304680	-360.981842	55.896336	-158.326691	-404.223724	52.589149	-206.347122	-226.265869	37.930477	-188.020416	-292.040924	535.588928	-428.720764	-319.475372	439.414642	-373.652771	-336.039215	259.824585	-437.117401	-358.911255	56.834721	-331.769104	-399.319733	46.683441	-283.555145	-233.155823	42.477985	-300.190277
90	0.89000000	-292.961090	1269.419922	-55.089687	-277.673492	1283.963623	-432.327271	-338.379242	1352.121460	-241.616211	-224.024506	1263.846924	-246.752777	-359.995331	1017.725281	62.074684	-341.549500	1030.084351	-548.340149	-335.906998	804.109070	127.824554	-297.529831	803.337250	-582.599945	-214.938354	881.489685	-117.385048	-198.329529	872.120911	-343.951721	-396.983490	940.051636	-253.899979	-400.176056	1148.959839	-253.675537	-183.560333	1070.941772	-239.494659	-307.804596	537.252197	-58.495262	-326.640808	444.345947	-116.358643	-349.010559	261.334045	-75.248138	-360.990692	55.871552	-158.348572	-404.322540	52.551334	-206.316360	-226.267288	37.931595	-188.027847	-291.963989	535.602844	-428.734131	-319.468140	439.408752	-373.623108	-336.049011	259.848480	-437.150055	-358.928345	56.797546	-331.753357	-399.280243	46.660168	-283.586304	-233.151245	42.464115	-300.177063
91	0.90000000	-293.095734	1269.421387	-55.133266	-277.781647	1283.998413	-432.263611	-338.396881	1352.059448	-241.564209	-224.018417	1263.847656	-246.758438	-360.101715	1017.735901	62.021481	-341.494995	1030.118530	-548.352783	-335.884888	804.093658	127.737839	-297.359528	803.396576	-582.650879	-214.784210	881.490356	-117.355415	-198.328476	872.121338	-343.952240	-396.921021	940.023560	-253.817047	-400.194366	1148.895020	-253.651382	-183.544830	1070.989624	-239.527039	-307.792908	537.240967	-58.492413	-326.628052	444.320282	-116.347946	-348.961548	261.275360	-75.295723	-361.040802	55.916340	-158.307068	-404.254150	52.551628	-206.304474	-226.266022	37.915966	-188.015823	-292.130249	535.628601	-428.782288	-319.496460	439.425171	-373.619812	-336.061493	259.816467	-437.157898	-358.921112	56.791862	-331.774353	-399.304321	46.593987	-283.562134	-233.151016	42.417500	-300.124847
92	0.91000000	-293.204407	1269.484131	-55.091885	-277.894501	1284.013062	-432.117767	-338.422485	1352.098389	-241.563629	-224.081024	1263.831543	-246.695816	-360.209290	1017.740356	61.961185	-341.399078	1030.121338	-548.274536	-335.864807	804.093384	127.704185	-297.158783	803.404327	-582.638916	-214.773453	881.491943	-117.352760	-198.328217	872.121460	-343.952301	-396.955322	939.984253	-253.661987	-400.151123	1148.874756	-253.566864	-183.532669	1070.998413	-239.535599	-307.716675	537.238770	-58.429508	-326.656860	444.355438	-116.307373	-349.001709	261.260071	-75.295181	-361.044312	55.887398	-158.338608	-404.358002	52.589485	-206.251038	-226.271027	37.904324	-188.013382	-292.065369	535.642456	-428.699097	-319.498749	439.393097	-373.592255	-335.970947	259.909729	-437.132751	-358.925415	56.815304	-331.787537	-399.341217	46.612282	-283.527313	-233.174713	42.468731	-300.188934
93	0.92000000	-293.334808	1269.491333	-55.120590	-277.999603	1283.994873	-432.035797	-338.396454	1352.027466	-241.593140	-224.096436	1263.825195	-246.660553	-360.124329	1017.672852	61.893433	-341.333069	1030.154297	-548.263245	-335.818176	804.106689	127.574028	-296.915192	803.535889	-582.648926	-214.788712	881.491333	-117.350563	-198.442078	872.114441	-343.966980	-396.963104	939.948669	-253.626953	-400.147522	1148.855103	-253.566223	-183.432327	1070.958252	-239.444122	-307.627808	537.216309	-58.381062	-326.639893	444.348724	-116.214676	-348.988281	261.310699	-75.286377	-361.033508	55.861992	-158.334656	-404.337891	52.550961	-206.268661	-226.269257	37.903114	-188.005157	-292.148895	535.643311	-428.733276	-319.492554	439.419403	-373.571381	-336.026031	259.897461	-437.142334	-358.946411	56.786152	-331.755585	-399.339874	46.583824	-283.522034	-233.178513	42.476833	-300.200531
94	0.93000000	-293.505859	1269.577881	-55.110031	-278.093079	1284.096191	-431.955780	-338.390015	1352.002197	-241.599380	-224.201797	1263.803345	-246.527603	-360.183167	1017.656128	61.829769	-341.254639	1030.149292	-548.188110	-335.728333	804.096039	127.452290	-296.667938	803.604645	-582.647766	-214.839783	881.363464	-117.339455	-198.535492	872.105103	-343.918701	-396.925568	939.958313	-253.546524	-400.221100	1148.844116	-253.532669	-183.439590	1070.921875	-239.403259	-307.616852	537.203186	-58.388069	-326.613770	444.294525	-116.231224	-349.021698	261.197235	-75.287560	-361.051636	55.750175	-158.317505	-404.364716	52.566936	-206.279221	-226.271729	37.889793	-188.017807	-292.163269	535.665588	-428.701935	-319.518372	439.368988	-373.605835	-336.057343	259.853058	-436.959229	-358.936981	56.760941	-331.766571	-399.349915	46.554672	-283.526123	-233.166229	42.443165	-300.170898
